<svg xmlns="http://www.w3.org/2000/svg" viewBox="0 0 760 380" font-family="'Inter', sans-serif">
  <defs>
    <filter id="w8"><feTurbulence baseFrequency="0.025" numOctaves="2" seed="21"/><feDisplacementMap in="SourceGraphic" scale="1.2"/></filter>
  </defs>

  <text x="380" y="36" font-family="'Caveat', cursive" font-size="28" fill="#B388FF" text-anchor="middle">Backtracking - try, prune, undo</text>

  <!-- Root -->
  <g filter="url(#w8)" stroke="#9AA7BD" stroke-width="2" fill="none">
    <line x1="380" y1="80" x2="200" y2="150"/>
    <line x1="380" y1="80" x2="380" y2="150"/>
    <line x1="380" y1="80" x2="560" y2="150"/>

    <line x1="200" y1="170" x2="120" y2="240"/>
    <line x1="200" y1="170" x2="200" y2="240"/>
    <line x1="200" y1="170" x2="280" y2="240"/>

    <line x1="380" y1="170" x2="320" y2="240"/>
    <line x1="380" y1="170" x2="440" y2="240"/>

    <line x1="560" y1="170" x2="500" y2="240"/>
    <line x1="560" y1="170" x2="580" y2="240"/>
    <line x1="560" y1="170" x2="640" y2="240"/>

    <line x1="200" y1="260" x2="200" y2="320"/>
    <line x1="380" y1="260" x2="380" y2="320"/>
    <line x1="560" y1="260" x2="560" y2="320"/>
  </g>

  <!-- Nodes -->
  <g stroke-width="2.5">
    <circle cx="380" cy="70"  r="22" fill="#3DD9D6" stroke="#3DD9D6"/>
    <circle cx="200" cy="160" r="22" fill="rgba(95,227,136,0.30)" stroke="#5FE388"/>
    <circle cx="380" cy="160" r="22" fill="rgba(255,92,92,0.30)"  stroke="#FF5C5C"/>
    <circle cx="560" cy="160" r="22" fill="rgba(95,227,136,0.30)" stroke="#5FE388"/>

    <circle cx="120" cy="250" r="20" fill="rgba(95,227,136,0.30)" stroke="#5FE388"/>
    <circle cx="200" cy="250" r="20" fill="rgba(255,92,92,0.30)"  stroke="#FF5C5C"/>
    <circle cx="280" cy="250" r="20" fill="rgba(95,227,136,0.30)" stroke="#5FE388"/>

    <circle cx="320" cy="250" r="20" fill="rgba(255,92,92,0.30)"  stroke="#FF5C5C"/>
    <circle cx="440" cy="250" r="20" fill="rgba(255,92,92,0.30)"  stroke="#FF5C5C"/>

    <circle cx="500" cy="250" r="20" fill="rgba(95,227,136,0.30)" stroke="#5FE388"/>
    <circle cx="580" cy="250" r="20" fill="rgba(95,227,136,0.30)" stroke="#5FE388"/>
    <circle cx="640" cy="250" r="20" fill="rgba(255,92,92,0.30)"  stroke="#FF5C5C"/>

    <circle cx="200" cy="335" r="14" fill="#FFD93D" stroke="#FFD93D"/>
    <circle cx="380" cy="335" r="14" fill="#FFD93D" stroke="#FFD93D"/>
    <circle cx="560" cy="335" r="14" fill="#FFD93D" stroke="#FFD93D"/>
  </g>

  <g font-family="'JetBrains Mono', monospace" font-size="12" fill="#9AA7BD">
    <text x="100" y="280">prune</text>
    <text x="180" y="280" fill="#FF5C5C">x</text>
    <text x="260" y="280">prune</text>
    <text x="300" y="280" fill="#FF5C5C">x</text>
    <text x="420" y="280" fill="#FF5C5C">x</text>
    <text x="630" y="280" fill="#FF5C5C">x</text>
  </g>

  <text x="170" y="370" font-family="'Caveat', cursive" font-size="20" fill="#FFD93D">solution!</text>
  <text x="355" y="370" font-family="'Caveat', cursive" font-size="20" fill="#FFD93D">solution!</text>
  <text x="535" y="370" font-family="'Caveat', cursive" font-size="20" fill="#FFD93D">solution!</text>
</svg>
