<svg xmlns="http://www.w3.org/2000/svg" viewBox="0 0 760 440" font-family="'Inter', sans-serif">
  <defs>
    <filter id="wUS"><feTurbulence baseFrequency="0.025" numOctaves="2" seed="53"/><feDisplacementMap in="SourceGraphic" scale="1.3"/></filter>
  </defs>

  <text x="380" y="34" font-family="'Caveat', cursive" font-size="28" fill="#B388FF" text-anchor="middle">URL shortener  -  high-level architecture</text>

  <!-- User -->
  <circle cx="60" cy="220" r="22" fill="rgba(61,217,214,0.20)" stroke="#3DD9D6" stroke-width="2.5" filter="url(#wUS)"/>
  <text x="60" y="225" font-family="'JetBrains Mono', monospace" font-size="12" fill="#3DD9D6" text-anchor="middle">user</text>

  <!-- CDN -->
  <g filter="url(#wUS)">
    <rect x="130" y="200" width="90" height="40" rx="6" fill="rgba(255,217,61,0.12)" stroke="#FFD93D" stroke-width="2.5"/>
  </g>
  <text x="175" y="225" font-family="'Caveat', cursive" font-size="18" fill="#FFD93D" text-anchor="middle">CDN</text>

  <!-- LB -->
  <g filter="url(#wUS)">
    <rect x="260" y="200" width="100" height="40" rx="6" fill="rgba(255,140,66,0.12)" stroke="#FF8C42" stroke-width="2.5"/>
  </g>
  <text x="310" y="225" font-family="'Caveat', cursive" font-size="18" fill="#FF8C42" text-anchor="middle">LB</text>

  <!-- Service nodes -->
  <g filter="url(#wUS)" stroke-width="2.5">
    <rect x="410" y="140" width="120" height="50" rx="6" fill="rgba(95,227,136,0.12)" stroke="#5FE388"/>
    <rect x="410" y="200" width="120" height="50" rx="6" fill="rgba(95,227,136,0.12)" stroke="#5FE388"/>
    <rect x="410" y="260" width="120" height="50" rx="6" fill="rgba(95,227,136,0.12)" stroke="#5FE388"/>
  </g>
  <g font-family="'Caveat', cursive" font-size="16" fill="#5FE388" text-anchor="middle">
    <text x="470" y="170">shorten-svc</text>
    <text x="470" y="230">shorten-svc</text>
    <text x="470" y="290">shorten-svc</text>
  </g>

  <!-- Key generator -->
  <g filter="url(#wUS)">
    <rect x="410" y="330" width="120" height="40" rx="6" fill="rgba(255,217,61,0.12)" stroke="#FFD93D" stroke-width="2.5"/>
  </g>
  <text x="470" y="356" font-family="'Caveat', cursive" font-size="16" fill="#FFD93D" text-anchor="middle">id generator (snowflake)</text>

  <!-- Cache -->
  <g filter="url(#wUS)" stroke-width="2.5" fill="none">
    <ellipse cx="630" cy="140" rx="50" ry="14" stroke="#B388FF"/>
    <path d="M580 140 L580 180 Q630 192 680 180 L680 140" stroke="#B388FF"/>
    <ellipse cx="630" cy="180" rx="50" ry="12" stroke="#B388FF"/>
  </g>
  <text x="630" y="166" font-family="'Caveat', cursive" font-size="16" fill="#B388FF" text-anchor="middle">Redis (hot)</text>

  <!-- DB -->
  <g filter="url(#wUS)" stroke-width="2.5" fill="none">
    <ellipse cx="630" cy="260" rx="60" ry="16" stroke="#FF7AB6"/>
    <path d="M570 260 L570 320 Q630 336 690 320 L690 260" stroke="#FF7AB6"/>
    <ellipse cx="630" cy="320" rx="60" ry="14" stroke="#FF7AB6"/>
  </g>
  <text x="630" y="295" font-family="'Caveat', cursive" font-size="16" fill="#FF7AB6" text-anchor="middle">KV (sharded)</text>

  <!-- Wiring -->
  <g stroke="#9AA7BD" stroke-width="1.5" fill="none">
    <path d="M82 220 L130 220"  marker-end="url(#aU)"/>
    <path d="M220 220 L260 220" marker-end="url(#aU)"/>
    <path d="M360 220 L410 165" marker-end="url(#aU)"/>
    <path d="M360 220 L410 225" marker-end="url(#aU)"/>
    <path d="M360 220 L410 285" marker-end="url(#aU)"/>
    <path d="M530 165 L580 160" marker-end="url(#aU)"/>
    <path d="M530 225 L580 170" marker-end="url(#aU)"/>
    <path d="M530 240 L580 270" marker-end="url(#aU)"/>
    <path d="M530 285 L580 280" marker-end="url(#aU)"/>
    <path d="M530 345 L580 320" marker-end="url(#aU)"/>
  </g>
  <defs>
    <marker id="aU" viewBox="0 0 10 10" refX="9" refY="5" markerWidth="6" markerHeight="6" orient="auto">
      <path d="M0 0 L10 5 L0 10 z" fill="#9AA7BD"/>
    </marker>
  </defs>

  <text x="380" y="410" font-family="'Caveat', cursive" font-size="18" fill="#9AA7BD" text-anchor="middle">read-heavy (~100:1) -&gt; cache the redirect, replicate the KV store</text>
</svg>
